<svg width="38" height="52" viewBox="0 0 38 52" fill="none" xmlns="http://www.w3.org/2000/svg">
  <path fill-rule="evenodd" clip-rule="evenodd" d="M20 50H18C7.88376 50 0 41.0411 0 30.4V2H2C9.87657 2 16.3997 7.43111 18.9021 14.8587C19.4596 14.3116 20.237 13.9799 21.1233 14.0345C30.5421 14.6155 38 22.4361 38 32C38 41.9412 29.9412 50 20 50Z" fill="white"/>
  <path d="M21.0002 16.0307C20.449 15.9967 20 16.4477 20 17V48C28.8366 48 36 40.8366 36 32C36 23.4994 29.3708 16.547 21.0002 16.0307Z" fill="black"/>
  <path d="M18 21.6V48C9.16344 48 2 40.1202 2 30.4V4C10.8366 4 18 11.8798 18 21.6Z" fill="black"/>
</svg>
